<!--?xml version="1.0" standalone="no"?-->
              <svg id="sw-js-blob-svg" viewBox="0 0 100 100" xmlns="http://www.w3.org/2000/svg" version="1.1">
                    <defs> 
                        <linearGradient id="sw-gradient" x1="0" x2="1" y1="1" y2="0">
                            <stop id="stop1" stop-color="rgba(102.428, 223.95, 193.278, 0.19)" offset="0%"></stop>
                            <stop id="stop2" stop-color="rgba(29.601, 98.727, 66.994, 0.14)" offset="100%"></stop>
                        </linearGradient>
                    </defs>
                <path fill="url(#sw-gradient)" d="M21.5,-34.4C28.3,-33.4,34.4,-28.4,32.9,-22C31.3,-15.6,22,-7.8,19,-1.7C16.1,4.4,19.3,8.7,19.6,12.8C19.8,16.9,17,20.7,13.2,22.8C9.5,24.9,4.7,25.2,-1.5,27.7C-7.7,30.3,-15.4,35.1,-20,33.6C-24.7,32,-26.4,24.1,-29.2,17.4C-32,10.8,-36,5.4,-38.2,-1.3C-40.5,-8,-41,-16,-36.6,-19.9C-32.2,-23.9,-22.9,-23.8,-16,-24.6C-9.1,-25.5,-4.5,-27.4,1.4,-29.9C7.4,-32.3,14.8,-35.4,21.5,-34.4Z" width="100%" height="100%" transform="translate(50 50)" stroke-width="0" style="transition: all 0.3s ease 0s;" stroke="url(#sw-gradient)"></path>
              </svg>