<?xml version="1.0" standalone="no"?>
<svg viewBox="0 0 200 200" xmlns="http://www.w3.org/2000/svg">
  <path fill="#F2F4F8" d="M9.3,-19.7C11.5,-14.9,12.3,-11.2,25.2,-8.2C38.1,-5.1,63,-2.5,75,6.9C87.1,16.4,86.1,32.8,75.3,39.5C64.5,46.1,43.8,43,29.6,41.9C15.4,40.8,7.7,41.7,-1.1,43.5C-9.8,45.4,-19.6,48.2,-32.2,48.4C-44.8,48.6,-60.2,46.1,-60.7,37.6C-61.3,29.1,-47,14.5,-40.8,3.6C-34.6,-7.4,-36.6,-14.8,-32.3,-16.9C-28.1,-19,-17.7,-15.9,-11.3,-18.2C-4.9,-20.6,-2.4,-28.5,0.6,-29.5C3.6,-30.4,7.1,-24.5,9.3,-19.7Z" transform="translate(100 100)" />
</svg>
